<svg width="100" height="100" viewBox="0 0 100 100" fill="none" xmlns="http://www.w3.org/2000/svg">
<rect width="100" height="100" rx="5" fill="#0B2B7C"/>
<path d="M70.4545 32.95L44.5227 61.5L34.8864 50.9L38.0909 47.375L44.5227 54.45L67.25 29.45L70.4545 32.95ZM47.7273 70C37.7045 70 29.5455 61.025 29.5455 50C29.5455 38.975 37.7045 30 47.7273 30C51.2955 30 54.6364 31.15 57.4545 33.125L60.75 29.5C57.0455 26.675 52.5682 25 47.7273 25C35.1818 25 25 36.2 25 50C25 63.8 35.1818 75 47.7273 75C51.6591 75 55.3636 73.9 58.5909 71.95L55.1818 68.2C52.9091 69.35 50.3864 70 47.7273 70ZM63.6364 57.5H56.8182V62.5H63.6364V70H68.1818V62.5H75V57.5H68.1818V50H63.6364V57.5Z" fill="white"/>
</svg>
