<svg width="40" height="40" viewBox="0 0 34 40" fill="none" xmlns="http://www.w3.org/2000/svg">
<path d="M21.8649 16.6L16.9297 21.3111L11.9712 16.6L8.68874 19.7333L13.6473 24.4444L8.71202 29.1556L11.9944 32.2889L16.9297 27.5778L21.8649 32.2889L25.1474 29.1556L20.2121 24.4444L25.1474 19.7333L21.8649 16.6ZM25.0775 2.22222L22.7496 0H11.1098L8.78186 2.22222H0.634033V6.66667H33.2253V2.22222H25.0775ZM2.96198 35.5556C2.96198 38 5.05714 40 7.61789 40H26.2415C28.8022 40 30.8974 38 30.8974 35.5556V8.88889H2.96198V35.5556ZM7.61789 13.3333H26.2415V35.5556H7.61789V13.3333Z" fill="#0B2B7C"/>
</svg>
